<?xml version="1.0" encoding="UTF-8" standalone="no"?>
<svg
   xmlns:dc="http://purl.org/dc/elements/1.1/"
   xmlns:cc="http://creativecommons.org/ns#"
   xmlns:rdf="http://www.w3.org/1999/02/22-rdf-syntax-ns#"
   xmlns:svg="http://www.w3.org/2000/svg"
   xmlns="http://www.w3.org/2000/svg"
   width="100%"
   height="100%"
   viewBox="0 0 64 64"
   version="1.1"
   xml:space="preserve"
   style="fill-rule:evenodd;clip-rule:evenodd;stroke-linecap:round;stroke-linejoin:round;stroke-miterlimit:2;"
   id="svg27">
  <metadata
   id="metadata33">
    <rdf:RDF>
      <cc:Work
   rdf:about="">
        <dc:format>image/svg+xml</dc:format>

        <dc:type
   rdf:resource="http://purl.org/dc/dcmitype/StillImage" />

      </cc:Work>

    </rdf:RDF>

  </metadata>

  <defs
   id="defs31" />

  
  <path
   d="M47,37.881l0,-6.381"
   style="fill:none;stroke:#222a33;stroke-width:1.5px;"
   id="path3" />

  <path
   d="M51,37l0,-16.593c0,-0.876 -0.449,-1.691 -1.19,-2.158c-3.301,-2.085 -12.574,-7.942 -16.265,-10.273c-0.944,-0.596 -2.146,-0.596 -3.09,0c-3.691,2.331 -12.964,8.188 -16.265,10.273c-0.741,0.467 -1.19,1.282 -1.19,2.158c0,4.075 0,15.593 0,15.593"
   style="fill:none;stroke:#222a33;stroke-width:1.5px;"
   id="path5" />

  <path
   d="M26.5,10.474l-16,10.105"
   style="fill:none;stroke:#222a33;stroke-width:1.5px;"
   id="path7" />

  <path
   d="M37.5,10.474l16,10.105"
   style="fill:none;stroke:#222a33;stroke-width:1.5px;"
   id="path9" />

  <path
   d="M36,20.5c0,-2.209 -1.791,-4 -4,-4c-2.209,0 -4,1.791 -4,4c0,2.205 0,4.5 0,4.5l8,0l0,-4.5Z"
   style="fill:none;stroke:#222a33;stroke-width:1.5px;"
   id="path11" />

  <path
   d="M26,25l12,0"
   style="fill:none;stroke:#222a33;stroke-width:1.5px;"
   id="path13" />

  <path
   d="M47,28l0,-2"
   style="fill:none;stroke:#222a33;stroke-width:1.5px;"
   id="path15" />

  <path
   d="M7.965,42.376c-0.203,-0.618 -0.133,-1.293 0.192,-1.856c0.325,-0.564 0.874,-0.962 1.511,-1.095c3.192,-0.582 9.014,-1.026 14.118,1.921c5.104,2.947 7.63,8.211 8.722,11.266c0.203,0.618 0.133,1.293 -0.192,1.857c-0.325,0.563 -0.875,0.961 -1.511,1.095c-3.193,0.581 -9.014,1.025 -14.118,-1.922c-5.104,-2.947 -7.631,-8.21 -8.722,-11.266Z"
   style="fill:none;stroke:#222a33;stroke-width:1.5px;"
   id="path17" />

  <path
   d="M32.878,54.747c0.273,0.472 0.733,0.805 1.266,0.917c2.674,0.487 7.55,0.859 11.825,-1.609c4.276,-2.469 6.392,-6.877 7.306,-9.437c0.17,-0.517 0.111,-1.083 -0.161,-1.555c-0.272,-0.471 -0.733,-0.805 -1.266,-0.917c-2.674,-0.487 -7.55,-0.859 -11.825,1.61c-0.989,0.571 -1.92,1.191 -2.633,1.978c-0.967,1.068 -2.39,3.266 -2.39,3.266"
   style="fill:none;stroke:#222a33;stroke-width:1.5px;"
   id="path19" />

  <path
   d="M32.643,54.528c-4.193,-4.043 -8.726,-7.032 -13.895,-8.044"
   style="fill:none;stroke:#222a33;stroke-width:1.5px;"
   id="path21" />

  <path
   d="M33.5,54.5c0,0 3.706,-6.373 11.5,-8.5"
   style="fill:none;stroke:#222a33;stroke-width:1.5px;"
   id="path23" />

  <path
   d="M36,42l0,-3.373c0,-0.962 -0.382,-1.885 -1.062,-2.565c-0.68,-0.68 -1.603,-1.062 -2.565,-1.062c-0.248,0 -0.498,0 -0.746,0c-2.003,0 -3.627,1.624 -3.627,3.627c0,0.231 0,0.373 0,0.373"
   style="fill:none;stroke:#222a33;stroke-width:1.5px;"
   id="path25" />

</svg>
