<?xml version="1.0" encoding="UTF-8"?>
<!DOCTYPE svg PUBLIC "-//W3C//DTD SVG 1.1//EN" "http://www.w3.org/Graphics/SVG/1.1/DTD/svg11.dtd">
<!-- Creator: CorelDRAW -->
<svg xmlns="http://www.w3.org/2000/svg" xml:space="preserve" width="6.82666in" height="6.82666in" style="shape-rendering:geometricPrecision; text-rendering:geometricPrecision; image-rendering:optimizeQuality; fill-rule:evenodd; clip-rule:evenodd"
viewBox="0 0 6.82666 6.82666"
 xmlns:xlink="http://www.w3.org/1999/xlink"
 version="1.1">
 <defs>
  <style type="text/css">
   <![CDATA[
    .fil7 {fill:none}
    .fil3 {fill:#00A79D}
    .fil0 {fill:#212121}
    .fil2 {fill:#326FB7}
    .fil5 {fill:#44B649}
    .fil1 {fill:#DA3127}
    .fil6 {fill:#F58120}
    .fil4 {fill:#F8B53C}
   ]]>
  </style>
 </defs>
 <g id="Layer_x0020_1">
  <metadata id="CorelCorpID_0Corel-Layer"/>
  <g id="_566373976">
   <g id="Guides">
   </g>
   <g id="Layer_2">
   </g>
   <g id="Layer_3">
   </g>
   <g id="Layer_4">
   </g>
   <g id="Layer_5">
   </g>
   <g id="Layer_6">
   </g>
   <g id="Layer_7">
   </g>
   <g id="Layer_8">
    <g>
     <g>
      <path id="_566366728" class="fil0" d="M3.14076 3.11906c-0.0025,0 -0.0050315,-0.000165354 -0.00756693,-0.0005 -0.0319331,-0.00413386 -0.0545,-0.0334016 -0.0503661,-0.0653346l0.162969 -1.25837c0.00413386,-0.0319331 0.0334016,-0.0545 0.0653346,-0.0503661 0.0319331,0.00413386 0.0545,0.0334016 0.0503661,0.0653346l-0.162969 1.25837c-0.00379921,0.0294331 -0.0289016,0.0508661 -0.0577677,0.0508661z"/>
     </g>
     <g>
      <path id="_566365648" class="fil0" d="M3.71593 3.6301c-0.0285,0 -0.0534331,-0.0209331 -0.0576654,-0.0499685 -0.00463386,-0.0318661 0.0174685,-0.0614685 0.0493661,-0.0660984l1.31326 -0.190366c0.0318661,-0.00463386 0.0614685,0.0174685 0.0660984,0.0493661 0.00463386,0.0318661 -0.0174685,0.0614685 -0.0493661,0.0660984l-1.31326 0.190366c-0.00283071,0.000401575 -0.00566535,0.000602362 -0.00843307,0.000602362z"/>
     </g>
     <g>
      <path id="_566365888" class="fil0" d="M2.5561 3.46876c-0.009,0 -0.0181339,-0.00209843 -0.0267008,-0.0065l-0.741264 -0.382201c-0.0286339,-0.0147677 -0.0398661,-0.0499331 -0.0250984,-0.0785669 0.0147677,-0.0286339 0.0499331,-0.0398661 0.0785669,-0.0250984l0.741268 0.382201c0.0286339,0.0147677 0.0398661,0.0499331 0.0250984,0.0785669 -0.0103031,0.0200669 -0.0307362,0.0315984 -0.0518701,0.0315984z"/>
     </g>
     <g>
      <path id="_566365768" class="fil0" d="M1.79093 4.49823c-0.0197008,0 -0.0389331,-0.0099685 -0.0499016,-0.0280315 -0.0167323,-0.0275315 -0.0079685,-0.0634016 0.0195669,-0.0801339l0.781567 -0.474965c0.0275315,-0.0167323 0.0634016,-0.0079685 0.0801339,0.0195669 0.0167323,0.0275315 0.0079685,0.0634016 -0.0195669,0.0801339l-0.781567 0.474965c-0.0094685,0.00573228 -0.0199016,0.00846457 -0.0302323,0.00846457z"/>
     </g>
     <g>
      <path id="_566364880" class="fil0" d="M3.66986 5.113c-0.0222008,0 -0.0434016,-0.0127323 -0.0531654,-0.0342677l-0.364299 -0.803335c-0.0132992,-0.0293346 -0.000299213,-0.0639016 0.0290315,-0.0772323 0.0293346,-0.0132992 0.0639016,-0.000299213 0.0772323,0.0290315l0.364299 0.803335c0.0132992,0.0293346 0.000299213,0.0639016 -0.0290315,0.0772323 -0.00779921,0.00357087 -0.016,0.00523622 -0.0240669,0.00523622z"/>
     </g>
     <g>
      <ellipse id="_566365216" class="fil1" cx="3.11076" cy="3.67176" rx="0.613433" ry="0.611031"/>
     </g>
     <g>
      <ellipse id="_566363992" class="fil2" cx="3.35953" cy="1.40787" rx="0.396067" ry="0.394531"/>
     </g>
     <g>
      <ellipse id="_566364256" class="fil3" cx="1.52217" cy="2.86243" rx="0.336665" ry="0.335331"/>
     </g>
     <g>
      <ellipse id="_566363224" class="fil4" cx="1.48257" cy="4.5956" rx="0.345598" ry="0.344232"/>
     </g>
     <g>
      <ellipse id="_566363392" class="fil5" cx="3.8225" cy="5.4188" rx="0.396067" ry="0.394531"/>
     </g>
     <g>
      <ellipse id="_566363872" class="fil6" cx="5.35743" cy="3.32953" rx="0.332264" ry="0.330933"/>
     </g>
    </g>
   </g>
   <g id="Layer_9">
   </g>
   <g id="Layer_10">
   </g>
   <g id="Layer_11">
   </g>
   <g id="Layer_12">
   </g>
   <g id="Layer_13">
   </g>
   <g id="Layer_14">
   </g>
   <g id="Layer_15">
   </g>
   <g id="Layer_16">
   </g>
   <g id="Layer_17">
   </g>
   <g id="Layer_18">
   </g>
   <g id="Layer_19">
   </g>
   <g id="Layer_20">
   </g>
   <g id="Layer_21">
   </g>
   <g id="Layer_22">
   </g>
   <g id="Layer_23">
   </g>
   <g id="Layer_24">
   </g>
   <g id="Layer_25">
   </g>
   <g id="Layer_26">
   </g>
  </g>
 </g>
 <rect class="fil7" width="6.82666" height="6.82666"/>
</svg>
